<svg width="20" height="20" viewBox="0 0 20 20" fill="none" xmlns="http://www.w3.org/2000/svg">
<path d="M16.2194 9.49492L11.2194 4.49492C10.9404 4.21597 10.4882 4.21597 10.2092 4.49492C9.95172 4.7524 9.93191 5.15757 10.1498 5.43778L10.2092 5.50507L13.99 9.28571H4.28571C3.9194 9.28571 3.61749 9.56145 3.57623 9.91669L3.57143 9.99999C3.57143 10.3663 3.84717 10.6682 4.20241 10.7095L4.28571 10.7143H13.99L10.2092 14.4949C9.95172 14.7524 9.93191 15.1576 10.1498 15.4378L10.2092 15.5051C10.4667 15.7626 10.8719 15.7824 11.1521 15.5645L11.2194 15.5051L16.2194 10.5051L16.2883 10.4252L16.3395 10.3458L16.3777 10.2652L16.403 10.19L16.4207 10.106L16.4257 10.0637L16.4284 9.98629L16.4257 9.93624L16.4141 9.85662L16.393 9.77703L16.3617 9.69769L16.3243 9.62806L16.2766 9.55946C16.2588 9.5368 16.2397 9.51525 16.2194 9.49492L11.2194 4.49492L16.2194 9.49492Z" fill="currentColor"/>
</svg>
