<?xml version="1.0" encoding="utf-8"?><svg viewBox="0 0 20 20" xmlns="http://www.w3.org/2000/svg" xmlns:xlink="http://www.w3.org/1999/xlink"><style>:root>svg{display:none}:root>svg:target{display:block}</style><svg fill="none" viewBox="0 0 20 20" id="icon-arr" xmlns="http://www.w3.org/2000/svg"><path d="M16.22 9.495l-5-5a.714.714 0 00-1.07.943l.06.067 3.78 3.78H4.286a.714.714 0 00-.71.632L3.571 10c0 .366.276.668.631.71l.084.004h9.704l-3.78 3.78a.714.714 0 00-.06.944l.06.067a.714.714 0 00.942.06l.067-.06 5-5 .07-.08.05-.08.039-.08.025-.075.018-.084.005-.042.002-.078-.002-.05-.012-.08-.021-.079-.031-.08-.038-.069-.047-.069a.726.726 0 00-.058-.064l-5-5 5 5z" fill="currentColor"/></svg></svg>